<svg class="svg-icon" style="width: 1em; height: 1em;vertical-align: middle;fill: currentColor;overflow: hidden;" viewBox="0 0 1024 1024" version="1.1" xmlns="http://www.w3.org/2000/svg"><path d="M853.333333 56.888889H750.933333A11.377778 11.377778 0 0 0 739.555556 68.266667v34.133333a11.377778 11.377778 0 0 0 11.377777 11.377778H853.333333a56.888889 56.888889 0 0 1 56.888889 56.888889v102.4a11.377778 11.377778 0 0 0 11.377778 11.377777h34.133333a11.377778 11.377778 0 0 0 11.377778-11.377777V170.666667A113.777778 113.777778 0 0 0 853.333333 56.888889zM170.666667 56.888889A113.777778 113.777778 0 0 0 56.888889 170.666667v102.4A11.377778 11.377778 0 0 0 68.266667 284.444444h34.133333a11.377778 11.377778 0 0 0 11.377778-11.377777V170.666667a56.888889 56.888889 0 0 1 56.888889-56.888889h102.4a11.377778 11.377778 0 0 0 11.377777-11.377778V68.266667A11.377778 11.377778 0 0 0 273.066667 56.888889zM910.222222 750.933333V853.333333a56.888889 56.888889 0 0 1-56.888889 56.888889H750.933333a11.377778 11.377778 0 0 0-11.377777 11.377778v34.133333a11.377778 11.377778 0 0 0 11.377777 11.377778H853.333333a113.777778 113.777778 0 0 0 113.777778-113.777778V750.933333a11.377778 11.377778 0 0 0-11.377778-11.377777h-34.133333a11.377778 11.377778 0 0 0-11.377778 11.377777zM170.666667 910.222222a56.888889 56.888889 0 0 1-56.888889-56.888889V750.933333a11.377778 11.377778 0 0 0-11.377778-11.377777H68.266667A11.377778 11.377778 0 0 0 56.888889 750.933333V853.333333a113.777778 113.777778 0 0 0 113.777778 113.777778h102.4a11.377778 11.377778 0 0 0 11.377777-11.377778v-34.133333a11.377778 11.377778 0 0 0-11.377777-11.377778zM512 256a111.312593 111.312593 0 0 1 56.888889 207.265185l-56.888889 33.374815-56.888889-33.46963A111.312593 111.312593 0 0 1 512 256m0 287.952593l67.602963 22.281481a207.644444 207.644444 0 0 1 136.533333 146.962963l0.474074 1.991111 0.663704 1.896296a38.968889 38.968889 0 0 1-36.977778 50.915556h-336.592592a38.968889 38.968889 0 0 1-36.977778-50.915556l0.663704-1.896296 0.474074-1.991111a207.17037 207.17037 0 0 1 136.533333-146.962963L512 543.952593M512 199.111111a168.201481 168.201481 0 0 0-85.333333 312.888889 264.059259 264.059259 0 0 0-174.08 187.543704A95.857778 95.857778 0 0 0 343.608889 824.888889h336.687407a95.857778 95.857778 0 0 0 91.022223-125.345185A264.533333 264.533333 0 0 0 597.333333 512a168.201481 168.201481 0 0 0-85.333333-312.888889z" fill="#0097FF" /></svg>